<svg width="174" height="211" viewBox="0 0 174 211" xmlns="http://www.w3.org/2000/svg" xmlns:xlink="http://www.w3.org/1999/xlink"><defs><linearGradient x1="0%" y1="30.017%" x2="100%" y2="69.983%" id="a"><stop stop-color="#8080F1" offset="0%"/><stop stop-color="#B3B3FC" offset="100%"/></linearGradient><linearGradient x1="3.549%" y1="0%" x2="153.371%" y2="136.3%" id="b"><stop stop-color="#92CDFA" offset="0%"/><stop stop-color="#1273EB" offset="100%"/></linearGradient><filter x="-10.8%" y="-10.8%" width="121.6%" height="121.6%" filterUnits="objectBoundingBox" id="c"><feOffset in="SourceAlpha" result="shadowOffsetOuter1"/><feGaussianBlur stdDeviation="5" in="shadowOffsetOuter1" result="shadowBlurOuter1"/><feColorMatrix values="0 0 0 0 0.0549019608 0 0 0 0 0.164705882 0 0 0 0 0.278431373 0 0 0 0.199737762 0" in="shadowBlurOuter1"/></filter><filter x="-52%" y="-36%" width="207.7%" height="171.3%" filterUnits="objectBoundingBox" id="g"><feMorphology radius=".5" operator="dilate" in="SourceAlpha" result="shadowSpreadOuter1"/><feOffset in="shadowSpreadOuter1" result="shadowOffsetOuter1"/><feGaussianBlur stdDeviation="2" in="shadowOffsetOuter1" result="shadowBlurOuter1"/><feComposite in="shadowBlurOuter1" in2="SourceAlpha" operator="out" result="shadowBlurOuter1"/><feColorMatrix values="0 0 0 0 0 0 0 0 0 0 0 0 0 0 0 0 0 0 0.5 0" in="shadowBlurOuter1"/></filter><path id="e" d="M0 0h59.571v59.571H0z"/><path d="M12.48 11.912L.684.115a.394.394 0 00-.672.278v17.302a.394.394 0 00.698.25l3.14-3.84 2.097 4.542a.393.393 0 00.512.195l2.752-1.18a.392.392 0 00.202-.525l-2.102-4.554h4.891a.393.393 0 00.278-.671z" id="h"/><rect id="d" x="0" y="0" width="139" height="139" rx="8"/></defs><g fill="none" fill-rule="evenodd"><g stroke="#E3E9ED"><path d="M63.371-11.437c15.54-6.141 32.19-9.7 47.988-11.037 2.26-.19 4.523-.337 6.788-.438 12.68-.566 25.61.317 37.546 4.625 17.816 6.43 34.02 22.215 33.97 42.257-.02 8.1-2.764 16.052-2.412 24.143.703 16.14 13.241 29.045 25.613 39.431 12.371 10.387 26.11 20.965 30.89 36.394 4.502 14.538-.213 30.745-9.11 43.106-8.897 12.362-21.53 21.485-34.345 29.72-18 11.57-37.813 22.125-59.202 22.544-4.462.087-9.049-.256-13.273 1.185-8.018 2.736-12.642 11.126-15.078 19.235-2.436 8.11-3.534 16.802-7.957 24.025-5.207 8.504-14.61 13.923-24.418 15.728-9.807 1.804-19.985.291-29.481-2.74-14.212-4.535-27.485-12.646-36.844-24.255-9.36-11.61-14.534-26.855-12.691-41.657 2.82-22.654 20.718-40.32 39.014-53.993 4.885-3.65 10.114-7.454 12.434-13.091 2.374-5.77 1.196-12.455-1.357-18.144-5.862-13.062-18.005-21.948-28.817-31.334C11.816 84.88 1.279 73.058.745 58.749.487 51.856 2.634 45.074 5.54 38.816 16.795 14.59 38.686-1.681 63.37-11.437z"/><path d="M33.742 46.404c7.415-14.446 19.21-25.379 33.41-32.883a107.854 107.854 0 0111.913-5.377C91.146 3.526 104.063.906 116.331.004c1.752-.13 3.506-.225 5.263-.285 9.829-.337 19.845.416 29.08 3.81.985.363 1.962.764 2.931 1.195 13.35 5.93 24.934 17.949 25.799 32.886.382 6.482-1.303 12.883-.7 19.409 1.21 13.026 11.159 23.716 20.807 32.556 3.522 3.238 7.155 6.5 10.52 9.953 5.874 6.031 10.931 12.635 13.158 20.685 3.298 11.964-.587 25.127-7.986 35.278-7.19 9.895-17.209 17.34-27.393 24.093-14.304 9.485-30.022 18.157-46.966 19.175-3.538.214-7.172.11-10.539 1.343-6.377 2.331-10.225 8.898-12.446 15.24-2.218 6.341-3.445 13.103-7.174 18.737-4.398 6.637-11.955 10.924-19.83 12.431-7.88 1.51-16.041.423-23.733-1.824-11.977-3.5-23.32-10.193-31.162-19.962a48.724 48.724 0 01-4.463-6.598c-4.966-8.866-6.785-18.51-5.037-28.34 3.198-17.987 18.967-32.57 33.31-44.058 3.962-3.172 7.996-6.523 9.77-11.235 1.815-4.822.862-10.34-1.182-15.118-4.672-10.882-14.35-18.64-22.834-26.78-8.572-8.224-16.664-18.269-16.546-30.026.056-5.6 2.132-11.037 4.764-16.165z"/><path d="M60.7 52.142c5.825-9.883 14.075-17.59 24.252-22.681a76.774 76.774 0 018.53-3.625c8.623-3.085 17.815-4.75 26.562-5.197a95.175 95.175 0 013.741-.122c6.987-.09 14.1.562 20.649 3.066a37.53 37.53 0 012.283.969c10.375 4.757 19.493 13.869 21.297 25.11.797 4.887.182 9.756 1.049 14.74 1.743 9.96 9.132 18.49 16.084 25.834 2.546 2.708 5.13 5.44 7.502 8.3 4.14 5.012 7.617 10.405 9.05 16.73 2.123 9.435-.908 19.591-6.792 27.55-5.469 7.446-12.867 13.22-20.414 18.492-10.6 7.404-22.22 14.189-34.731 15.776-2.616.336-5.3.463-7.81 1.485-4.737 1.922-7.8 6.679-9.794 11.27-1.987 4.588-3.33 9.441-6.357 13.497-3.578 4.783-9.287 7.935-15.235 9.135-5.954 1.202-12.114.536-18.005-.964-9.766-2.486-19.191-7.824-25.543-15.801a37.505 37.505 0 01-3.591-5.407c-4.071-7.55-4.863-14.91-2.801-22.947 3.428-13.36 17.141-24.921 27.539-34.2 3.03-2.702 5.869-5.598 7.088-9.396 1.248-3.887.509-8.258-1.04-12.144-3.508-8.75-10.743-15.436-16.926-22.362-6.353-7.117-12.043-15.42-11.289-24.666.353-4.323 2.332-8.422 4.702-12.442z"/><path d="M89.272 58.903c4.059-5.4 9.046-9.8 15.244-12.507a46.8 46.8 0 015.179-1.898c5.194-1.58 10.687-2.325 15.93-2.355a58.43 58.43 0 012.229.024c4.158.126 8.37.66 12.242 2.217.552.222 1.095.472 1.635.729 7.398 3.517 14.026 9.647 16.721 17.14 1.191 3.27 1.623 6.59 2.733 10.01 2.235 6.847 7.055 13.14 11.274 18.938 1.567 2.151 3.091 4.334 4.458 6.582 2.391 3.954 4.27 8.101 4.885 12.67.907 6.861-1.337 13.974-5.741 19.748-3.804 4.987-8.61 9.109-13.56 12.914-6.951 5.345-14.525 10.27-22.636 12.475-1.7.467-3.44.837-5.102 1.656-3.116 1.525-5.42 4.47-7.212 7.303-1.783 2.828-3.266 5.76-5.614 8.236-2.789 2.929-6.674 4.96-10.71 5.876-4.047.918-8.224.727-12.31-.02-7.577-1.383-15.064-5.334-19.901-11.46a25.587 25.587 0 01-2.699-4.18c-3.165-6.177-2.979-11.23-.466-17.451 3.522-8.718 15.422-17.327 21.979-24.34 2.108-2.254 3.78-4.679 4.466-7.554.7-2.942.193-6.147-.843-9.12-2.311-6.567-7.073-12.138-10.949-17.78-4.1-5.968-7.395-12.45-5.937-19.16.658-3.03 2.52-5.787 4.705-8.693z"/><path d="M121.679 63.842c-2.19.299-4.285 1.038-6.126 2.305-16.743 11.521 8.57 29.85.023 43.984-2.8 4.632-12.995 10.186-16.21 14.47-3.2 4.264-4.022 7.18-1.761 12.052 2.795 6.025 9.56 10.049 16.107 10.297 9.33.354 17.422-6.216 24.453-11.548a99.36 99.36 0 0016.999-16.422c4.813-5.913 5.436-13.323 3.765-20.72-2.955-13.086-12.867-25.605-24.678-31.855a36.59 36.59 0 00-.987-.503c-3.557-1.742-7.717-2.589-11.585-2.06z"/></g><path d="M202.836 112.252c-7.232 6.15-36.104 40.628-56.195 47.21-27.474 9-57.399-3.327-85.24 4.095-43.464 11.586-32.87 66.926-7.574 90.606 29.016 27.163 95.832 45.651 132.5 23.088 14.215-8.748 31.95-29.497 45.714-33.723 13.764-4.227 36.707 1.564 49.47.333 32.696-3.154 45.207-47.511 40.324-76.703-8.846-52.884-91.078-78.649-118.999-54.906z" fill="url(#a)" transform="rotate(-17 149.571 198.061)"/><path d="M6.28 80.126c8.701 21.235 31.786 31.547 54.666 22.7C83.826 93.98 86.93 65.438 79.2 49.332c-7.732-16.106-22.884-30.213-47.901-25.36C6.28 28.824-2.421 58.89 6.28 80.126z" fill="url(#b)" transform="translate(-2 -8)"/><g transform="translate(15 36)"><use fill="#000" filter="url(#c)" xlink:href="#d"/><use fill="#FFF" xlink:href="#d"/></g><g transform="translate(54.714 75.714)"><mask id="f" fill="#fff"><use xlink:href="#e"/></mask><path d="M41.015 15.252l-6.144-10.6h6.088a4.64 4.64 0 013.205 1.281l9.641 9.157.13.162h-12.92zM29.774 47.68l-7.006-27.775h13.929L29.774 47.68zM5.5 20.787l-.014-.023a4.697 4.697 0 01-.471-.86h12.953l7.786 30.867L5.5 20.787zm.276-5.693l9.695-9.169a4.642 4.642 0 013.198-1.273h5.735l-5.982 10.6H5.645c.043-.053.085-.105.132-.158zM29.624 4.877l6.012 10.375H23.767l5.857-10.375zm27.605 7.062a1.575 1.575 0 00-.14-.143l-9.72-9.236A9.262 9.262 0 0040.958 0H18.67a9.282 9.282 0 00-6.395 2.544L2.498 11.79a2.372 2.372 0 00-.141.143 9.317 9.317 0 00-2.301 5.169 2.48 2.48 0 00-.047.597A9.304 9.304 0 001.652 23.4l22.476 33.275c.02.028.04.058.062.087a6.909 6.909 0 005.596 2.808h.002c.022 0 .042 0 .063-.002a6.912 6.912 0 005.53-2.806c.023-.029.043-.059.065-.09l14.05-20.808a2.327 2.327 0 10-3.855-2.604L33.788 50.814l7.704-30.91h13.06a4.66 4.66 0 01-.467.85l-.014.02-1.91 2.83a2.329 2.329 0 00.625 3.23 2.331 2.331 0 003.232-.625l1.904-2.821a9.286 9.286 0 00-.692-11.45z" fill="#1D262D" mask="url(#f)"/></g><g transform="translate(124.687 41.673)"><rect fill="#EFF3F6" width="23.639" height="23.639" rx="4"/><g fill="#374957"><path d="M10.131 6H7.505C6.675 6 6 6.675 6 7.505v2.626c0 .83.675 1.505 1.505 1.505h2.626c.83 0 1.505-.675 1.505-1.505V7.505c0-.83-.675-1.505-1.505-1.505zm.137 4.131a.137.137 0 01-.137.137H7.505a.137.137 0 01-.137-.137V7.505c0-.076.061-.137.137-.137h2.626c.076 0 .137.061.137.137v2.626zm-.137 2.873H7.505c-.83 0-1.505.675-1.505 1.504v2.627c0 .83.675 1.504 1.505 1.504h2.626c.83 0 1.505-.675 1.505-1.504v-2.627c0-.83-.675-1.504-1.505-1.504zm.137 4.13a.137.137 0 01-.137.138H7.505a.137.137 0 01-.137-.137v-2.627c0-.075.061-.136.137-.136h2.626c.076 0 .137.061.137.136v2.627zm6.867-4.13h-2.627c-.83 0-1.504.675-1.504 1.504v2.627c0 .83.675 1.504 1.504 1.504h2.627c.83 0 1.504-.675 1.504-1.504v-2.627c0-.83-.675-1.504-1.504-1.504zm.137 4.13a.137.137 0 01-.137.138h-2.627a.137.137 0 01-.136-.137v-2.627c0-.075.061-.136.136-.136h2.627c.075 0 .137.061.137.136v2.627z" fill-rule="nonzero"/><path d="M13.688 9.502h1.45v1.45a.684.684 0 001.368 0v-1.45h1.45a.684.684 0 000-1.368h-1.45v-1.45a.684.684 0 00-1.368 0v1.45h-1.45a.684.684 0 000 1.368z"/></g></g><g transform="translate(124.687 68.15)"><rect fill="#EFF3F6" width="23.639" height="23.639" rx="4"/><g transform="translate(5.673 10.401)" fill="#374957"><circle cx="1.418" cy="1.418" r="1.418"/><circle cx="6.146" cy="1.418" r="1.418"/><circle cx="10.874" cy="1.418" r="1.418"/></g></g><g fill="#000" transform="translate(138.87 61.53)" fill-rule="nonzero"><use filter="url(#g)" xlink:href="#h"/><use stroke="#FFF" xlink:href="#h"/></g></g></svg>